<svg xmlns="http://www.w3.org/2000/svg" width="12.578" height="16.437" viewBox="0 0 12.578 16.437">
  <g transform="translate(0.5)">
    <g transform="translate(2.368)" fill="none">
      <path d="M 6.090357780456543 4.132582187652588 L 0.4999979436397552 4.132582187652588 L 0.4999979436397552 3.474442005157471 C 0.4999979436397552 1.83433198928833 1.753907918930054 0.5000020265579224 3.295177936553955 0.5000020265579224 C 4.836447715759277 0.5000020265579224 6.090357780456543 1.83433198928833 6.090357780456543 3.474442005157471 L 6.090357780456543 4.132582187652588 Z" stroke="none"/>
      <path d="M 3.295177936553955 1.000002145767212 C 2.029607772827148 1.000002145767212 0.9999980926513672 2.110032081604004 0.9999980926513672 3.474442005157471 L 0.9999980926513672 3.632582187652588 L 5.590357780456543 3.632582187652588 L 5.590357780456543 3.474442005157471 C 5.590357780456543 2.110032081604004 4.560748100280762 1.000002145767212 3.295177936553955 1.000002145767212 M 3.295177936553955 1.9073486328125e-06 C 5.115057945251465 1.9073486328125e-06 6.590357780456543 1.555562019348145 6.590357780456543 3.474442005157471 L 6.590357780456543 4.632582187652588 L -1.9073486328125e-06 4.632582187652588 L -1.9073486328125e-06 3.474442005157471 C -1.9073486328125e-06 1.555562019348145 1.475297927856445 1.9073486328125e-06 3.295177936553955 1.9073486328125e-06 Z" stroke="none" fill="#000"/>
    </g>
    <path d="M3276.784,1804.748v-12.313h11.578v12.313Z" transform="translate(-3276.784 -1788.811)" fill="none" stroke="#000" stroke-width="1"/>
  </g>
</svg>
